<svg id="Layer_1" data-name="Layer 1" xmlns="http://www.w3.org/2000/svg" viewBox="0 0 202.51 288.49"><defs><style>.cls-1,.cls-2{fill:#1a1a1a;stroke:#1a1a1a;stroke-miterlimit:10;}.cls-1{stroke-width:1.16px;}</style></defs><title>bw</title><path class="cls-1" d="M380.76,300.49a79.42,79.42,0,0,1-12.61,13.61c-1.27,1-2.64,2-4.08,3l0,0A99,99,0,0,1,342,328.28a3.4,3.4,0,0,1-.34.12c-1.33.47-2.65.9-3.94,1.29a1.67,1.67,0,0,0-.7.26,1,1,0,0,0-.13.15l-.18.22a1.69,1.69,0,0,0-.26.41.31.31,0,0,0,0,.08s0,0,0,0,.13.15.2.23a1.71,1.71,0,0,0,.26.21l.14.09a1.15,1.15,0,0,0,.5.19,3.55,3.55,0,0,0,1.44-.38c17.51-6.3,34.84-16.82,45.09-32.19,6-9,10.87-18.46,11.87-29.26,2.7-29.19-8.66-52.1-34.21-67.74-20.08-12.29-45.08-11.44-63.32,2.95a1.79,1.79,0,0,1-2.61,0,49.19,49.19,0,0,0-18.43-8.72c-17.76-4.19-33.89-.33-48.48,9.86a67.61,67.61,0,0,0-27.59,39.87c-4.09,16.15-2.65,31.84,5.7,46.6a84.21,84.21,0,0,0,21.45,24.93c6.53,5.14,13.27,10,21.28,12.87,13.19,4.7,27,6.46,40.9,7.25,8.72.5,17.38,1.24,26,2.41.89.12,1.77.25,2.66.39h0c.56.07,1.11.15,1.67.24,8.07,1.24,16.09,2.88,23.43,6.5a89,89,0,0,1,30.87,25q2.94,3.72,5.54,7.78c3.62,5.67,6.81,11,8.27,17.47,3.38,15,1.28,29.47-5.63,43.21-8.11,16.14-20.54,28-38.37,33.77-16.67,5.39-32.55,3.65-47.05-6.48-.54-.37-1-.83-1.63-1.33l.38-.39c.91-.91,1.78-1.83,2.6-2.77l.4-.45c.47-.54.92-1.08,1.37-1.63,9.47-11.7,13.36-25.27,12.53-40.38A69.07,69.07,0,0,0,311.47,407c-3-11.4-9-21.67-17.82-31l-.31-.33a67.57,67.57,0,0,0-18.32,36c-3.2,18.77.49,35.66,12.73,50.06.44.53.9,1.06,1.38,1.58l.38.42c.82.9,1.68,1.78,2.57,2.65l.25.25a2.71,2.71,0,0,1-.36.57,13.26,13.26,0,0,1-1.17.93c-14.75,10.84-31.06,12.81-48.3,7.25-17.53-5.64-29.83-17.28-38.06-33A64.38,64.38,0,0,1,197.3,405c1.3-10.15,6.44-18.81,11.33-27.41l3-3.87a108.58,108.58,0,0,1,12.8-14.48,102.51,102.51,0,0,1,23.8-12.78l.09,0c1.14-.43,2.26-.83,3.36-1.19a2.69,2.69,0,0,0,.87-.35,2.36,2.36,0,0,0,.39-.43l.11-.16c.05-.09.07-.17,0-.21a1.53,1.53,0,0,0-.16-.22.94.94,0,0,0-.1-.1,1.36,1.36,0,0,0-.66-.4,2.8,2.8,0,0,0-1.28.24c-10,3.46-21.81,9.38-29.72,16-8.81,7.38-15.3,16.67-20.16,26.84-7,14.58-7.71,29.77-3.08,45.12,5.77,19.14,17.52,33.9,36.08,42.75,20.63,9.84,40.7,8.69,59.33-5.21a1.77,1.77,0,0,1,2.48.08c17.38,12.23,36.12,13.72,55.41,5.29,20.4-8.91,33-24.6,38.84-45.34,4.36-15.51,3.2-30.74-4.17-45.2a84.69,84.69,0,0,0-23.66-28.06c-9.15-7.2-19.06-12.94-30.79-15.12-7.69-1.42-15.42-2.71-23.2-3.57-10.41-1.15-20.9-1.65-31.32-2.77q-2.17-.24-4.35-.51l-.7-.1a82.3,82.3,0,0,1-22.15-5.72,91.15,91.15,0,0,1-19.91-11.85l-.05,0A87.39,87.39,0,0,1,211.13,296C202.19,282.7,199,268.17,202,252.57c4.69-24.44,18.15-42.59,42.36-52,16.23-6.32,32.22-5,47.17,4.24,1.25.78,2.41,1.7,3.77,2.67l-.42.43c-.9.9-1.75,1.81-2.56,2.74l-.4.45c-.49.56-1,1.13-1.42,1.71-9.49,11.73-13.39,25.29-12.56,40.36A68.89,68.89,0,0,0,280.07,267c3,11.46,9,21.78,17.89,31.13l.28.3a66.8,66.8,0,0,0,15.79-26c.37-1.14.72-2.3,1-3.48,5.6-21,2.52-40-11.22-56.49-.47-.56-.95-1.12-1.45-1.68-.12-.15-.25-.29-.39-.44-.78-.87-1.6-1.73-2.45-2.59l-.36-.37c.55-.46,1-.88,1.49-1.24,15.58-11.43,32.7-13.22,50.58-6.56,20.53,7.63,33.42,22.55,40.12,42.5,4.36,13,4.66,26.18.08,39.3A69.63,69.63,0,0,1,380.76,300.49ZM294.22,464.54a2.8,2.8,0,0,1-1.46-.91c-.42-.41-.83-.83-1.23-1.25l-.39-.42c-.49-.51-1-1-1.43-1.56a53.06,53.06,0,0,1-12.93-29.48,66.46,66.46,0,0,1-.41-8.41,65.16,65.16,0,0,1,2.51-17.27s0,0,0,0a67.66,67.66,0,0,1,12.3-23.51c.64-.8,1.26-1.62,2.2-2.82,2.15,2.8,4.17,5.15,5.89,7.69a70.38,70.38,0,0,1,10.43,23.11,62.08,62.08,0,0,1,.83,24.65c-.23,1.45-.52,2.92-.85,4.39a50.63,50.63,0,0,1-10.55,21.37c-.44.55-.91,1.1-1.4,1.63-.13.16-.27.31-.41.47-.41.45-.84.9-1.27,1.35a3,3,0,0,1-1.4,1A1.09,1.09,0,0,1,294.22,464.54Zm4.67-254c.37.37.74.73,1.1,1.11.14.14.28.29.41.44.52.53,1,1.07,1.49,1.63a52.15,52.15,0,0,1,12.61,27.52c.07.51.14,1,.2,1.52a64.59,64.59,0,0,1-2,26.26,69.71,69.71,0,0,1-12.18,23.25c-.67.86-1.33,1.73-2.28,3-2-2.52-3.79-4.62-5.36-6.89a71.63,71.63,0,0,1-11.09-24.21v0a61.29,61.29,0,0,1-.71-24.52q.54-3.18,1.41-6.41a50.4,50.4,0,0,1,10-19.19c.46-.56.93-1.11,1.42-1.65.14-.17.29-.33.44-.5l1.25-1.32a2.78,2.78,0,0,1,1.44-.94,1.29,1.29,0,0,1,.34,0A2.85,2.85,0,0,1,298.89,210.55Z" transform="translate(-194.38 -192.84)"/><path class="cls-1" d="M310.54,434.33c-.23,1.45-.52,2.92-.85,4.39a50.63,50.63,0,0,1-10.55,21.37l-.46-.3h0c.31-.37.47-.59.47-.59l-1.95-1.26c-.11.14-.25.28-.4.44l-.47-.39A53.23,53.23,0,0,0,310.54,434.33Z" transform="translate(-194.38 -192.84)"/><path class="cls-1" d="M295.29,216.06a53.74,53.74,0,0,0-14.22,23.55q.54-3.18,1.41-6.41a50.4,50.4,0,0,1,10-19.19l.45.32-.53.67,2,1.16c.12-.15.27-.3.43-.47C295,215.82,295.12,215.94,295.29,216.06Z" transform="translate(-194.38 -192.84)"/><path class="cls-1" d="M292.55,458a3.56,3.56,0,0,1-.32.52,6.13,6.13,0,0,1-.44-.46l-2,1.48.42.5c-.18.12-.36.24-.53.37a53.06,53.06,0,0,1-12.93-29.48C279.05,440.79,284.19,449.86,292.55,458Z" transform="translate(-194.38 -192.84)"/><path class="cls-1" d="M314.7,242.77c-2.36-9.61-7.51-18.57-15.74-26.79l.46-.39a6.6,6.6,0,0,1,.46.48l2-1.45-.48-.58.47-.31a52.15,52.15,0,0,1,12.61,27.52C314.57,241.76,314.64,242.27,314.7,242.77Z" transform="translate(-194.38 -192.84)"/><path class="cls-1" d="M375.11,302.92a74.35,74.35,0,0,1-11.78,12.71A77.54,77.54,0,0,1,342,328.28a3.4,3.4,0,0,1-.34.12c-1.31.5-2.66,1-4,1.36a1.63,1.63,0,0,0-.66.25l-.09.09-.18.22a1.69,1.69,0,0,0-.26.41.31.31,0,0,0,0,.08s0,0,0,0,.13.15.2.23a1.71,1.71,0,0,0,.26.21l.14.09a1,1,0,0,0,.42.14,3.31,3.31,0,0,0,1.36-.35,84.16,84.16,0,0,0,25.24-14l0,0a71.53,71.53,0,0,0,14.11-15.63c5.61-8.41,10.15-17.22,11.08-27.3,2.52-27.26-8.08-48.65-31.94-63.25-17.26-10.56-38.4-10.73-54.93-.21-.67.43-1.34.87-2,1.34l-.45.32c-.59.42-1.17.86-1.74,1.31a2.83,2.83,0,0,1-.59.37,1.31,1.31,0,0,1-1.06.06,3.12,3.12,0,0,1-.79-.45c-.47-.35-.95-.7-1.43-1-.15-.11-.3-.22-.46-.32-.65-.45-1.31-.88-2-1.29a45.19,45.19,0,0,0-13.33-5.51c-16.57-3.9-31.64-.3-45.26,9.21A63.18,63.18,0,0,0,207.54,252c-3.82,15.07-2.47,29.72,5.32,43.5a78.61,78.61,0,0,0,16.87,20.66l.05,0c1,.88,2.05,1.73,3.11,2.57,6.1,4.79,12.39,9.34,19.87,12,12.31,4.4,25.21,6,38.18,6.77,8.61.49,17.17,1.24,25.67,2.45.89.12,1.77.25,2.66.39h0c7.53,1.16,15,2.7,21.86,6.07,14.22,7,25.92,16.76,34.37,30a52.81,52.81,0,0,1,7.35,17c3.15,14,1.19,27.51-5.26,40.33-7.58,15.07-19.18,26.16-35.82,31.53-14.32,4.63-28,3.63-40.65-3.93-.66-.39-1.33-.81-2-1.25l-.46-.3h0l-.83-.56a11.18,11.18,0,0,1-1.05-.85l-.47-.39a53.23,53.23,0,0,0,14.21-23.65,58,58,0,0,0,1.93-18.94,65.27,65.27,0,0,0-1-8.38c-2.35-12.66-8.43-23.85-18-33.9a63.7,63.7,0,0,0-16.19,29.17c-.35,1.45-.66,2.91-.91,4.4a60.77,60.77,0,0,0,.39,24.24c2.27,9.87,7.41,18.94,15.77,27.07a3.56,3.56,0,0,1-.32.52h0a13.13,13.13,0,0,1-1.1.87l-.88.64c-.18.12-.36.24-.53.37-.65.44-1.31.87-2,1.29-12.87,8.07-26.92,9.24-41.72,4.47-16.36-5.27-27.85-16.13-35.54-30.84a60.18,60.18,0,0,1-6.66-34.87c1-9.5,5-17.87,10.19-25.82,4.19-6.37,9-12.27,15.1-16.9a84.41,84.41,0,0,1,19.07-11.31l.09,0c1.13-.46,2.28-.88,3.46-1.26a2.44,2.44,0,0,0,.81-.34,2.52,2.52,0,0,0,.35-.37l.11-.16c.05-.09.07-.17,0-.21a1.53,1.53,0,0,0-.16-.22.94.94,0,0,0-.1-.1,1.28,1.28,0,0,0-.6-.35,2.54,2.54,0,0,0-1.19.22,83.45,83.45,0,0,0-25.77,14.51,61.56,61.56,0,0,0-13.64,15.57,62.19,62.19,0,0,0-4.73,9.4c-6.51,13.61-6.8,27.86-2.48,42.19,5.39,17.86,16.36,31.65,33.69,39.91,17.66,8.42,34.9,8.22,51.06-1.91.67-.41,1.34-.85,2-1.31l.52-.35c.6-.42,1.2-.85,1.8-1.3A2.66,2.66,0,0,1,294,460a1.28,1.28,0,0,1,.92,0h0a3,3,0,0,1,.81.44c.5.35,1,.7,1.52,1l.45.3c.67.44,1.35.86,2,1.25,15.1,9,31.21,9.59,47.74,2.36,19-8.32,30.82-23,36.26-42.33,4.07-14.48,3.39-29.21-3.5-42.71a59.51,59.51,0,0,0-5-8.13,89.11,89.11,0,0,0-17.47-17.56c-8.54-6.71-17.8-12.08-28.74-14.11-7.18-1.33-14.41-2.53-21.66-3.33-9.73-1.08-19.52-1.54-29.25-2.59-1.86-.2-3.73-.43-5.59-.69l-.7-.1a74.42,74.42,0,0,1-19.1-5.12,82.29,82.29,0,0,1-36-29.91c-8.35-12.43-11.35-26-8.55-40.57,4.38-22.81,16.95-39.76,39.55-48.57,14.68-5.73,29.15-4.79,42.73,3.17.44.25.87.52,1.31.79l.68.44.45.32c.61.42,1.22.89,1.88,1.36.16.13.33.25.5.37a53.74,53.74,0,0,0-14.22,23.55,57.67,57.67,0,0,0-2,19.11,65.56,65.56,0,0,0,1,8.27c2.32,12.7,8.39,23.95,18,34a62.15,62.15,0,0,0,15.71-27.54c.09-.35.18-.7.26-1,2.65-10.44,3-20.34.67-29.64-2.36-9.61-7.51-18.57-15.74-26.79l.46-.39c.32-.28.61-.54.92-.77l1.08-.78.47-.31q1-.67,1.95-1.29c13.6-8.51,28.36-9.47,43.73-3.75,19.16,7.13,31.2,21.06,37.45,39.68a55.3,55.3,0,0,1,.07,36.69A64.79,64.79,0,0,1,375.11,302.92ZM293,455.22c-10.81-10.67-15.49-23.65-15.3-38.38a62.24,62.24,0,0,1,1.23-11.6s0,0,0,0a62.25,62.25,0,0,1,12.6-26.47c.6-.75,1.17-1.52,2.05-2.64,2,2.62,3.89,4.81,5.49,7.18a63.74,63.74,0,0,1,10.68,26.4,59.84,59.84,0,0,1-.95,22.29A47.94,47.94,0,0,1,296,455.14C294.88,456.33,294.18,456.44,293,455.22Zm20.3-207.61a61.78,61.78,0,0,1-.56,21.42,63.68,63.68,0,0,1-12.5,26.23c-.63.8-1.24,1.61-2.13,2.77-1.84-2.35-3.54-4.31-5-6.43-6-8.74-9.89-17.88-11.28-27.45v0a58.89,58.89,0,0,1,1.57-24,48,48,0,0,1,12.22-21.16c1.2-1.23,1.94-1.13,3.1,0A49,49,0,0,1,313.25,247.61Z" transform="translate(-194.38 -192.84)"/><path class="cls-2" d="M391.46,281.36a69.63,69.63,0,0,1-10.7,19.13,79.42,79.42,0,0,1-12.61,13.61c-1.27,1-2.64,2-4.08,3a71.53,71.53,0,0,0,14.11-15.63c5.61-8.41,10.15-17.22,11.08-27.3,2.52-27.26-8.08-48.65-31.94-63.25-17.26-10.56-38.4-10.73-54.93-.21-.12-.15-.25-.29-.39-.44l.81-.52-2.57-2.58-.69.51-.36-.37c.55-.46,1-.88,1.49-1.24,15.58-11.43,32.7-13.22,50.58-6.56,20.53,7.63,33.42,22.55,40.12,42.5C395.74,255.05,396,268.24,391.46,281.36Z" transform="translate(-194.38 -192.84)"/><path class="cls-2" d="M302.81,209.8l-.81.52c-.51.33-1.22.8-2,1.34l-.47.32c-.78.55-1.62,1.15-2.41,1.75l-.55.43a20,20,0,0,0-1.77,1.53c-.16.17-.31.32-.43.47l-2-1.16.53-.67c.34-.41.83-1,1.43-1.65.14-.17.3-.34.46-.51h0c.68-.76,1.49-1.59,2.38-2.42l.16-.15c.69-.64,1.43-1.28,2.2-1.87l.69-.51Z" transform="translate(-194.38 -192.84)"/><path class="cls-2" d="M295.27,207.45l-.42.43-.52-.37-2.76,2.68.72.43-.4.45a45.19,45.19,0,0,0-13.33-5.51c-16.57-3.9-31.64-.3-45.26,9.21A63.18,63.18,0,0,0,207.54,252c-3.82,15.07-2.47,29.72,5.32,43.5a78.61,78.61,0,0,0,16.87,20.66A87.39,87.39,0,0,1,211.13,296C202.19,282.7,199,268.17,202,252.57c4.69-24.44,18.15-42.59,42.36-52,16.23-6.32,32.22-5,47.17,4.24C292.75,205.56,293.91,206.48,295.27,207.45Z" transform="translate(-194.38 -192.84)"/><path class="cls-2" d="M301.9,214.62l-2,1.45a6.6,6.6,0,0,0-.46-.48,18.05,18.05,0,0,0-1.8-1.49l-.51-.37c-.75-.54-1.55-1.07-2.3-1.56h0l-.48-.31c-.81-.51-1.53-1-2-1.24l-.72-.43,2.76-2.68.52.37c.76.55,1.48,1.13,2.16,1.72l.18.15c.88.78,1.67,1.54,2.33,2.23.16.15.3.3.43.44.63.66,1.13,1.23,1.47,1.62Z" transform="translate(-194.38 -192.84)"/><path class="cls-2" d="M292.33,466.59a2.71,2.71,0,0,1-.36.57,13.26,13.26,0,0,1-1.17.93c-14.75,10.84-31.06,12.81-48.3,7.25-17.53-5.64-29.83-17.28-38.06-33A64.38,64.38,0,0,1,197.3,405c1.3-10.15,6.44-18.81,11.33-27.41l3-3.87a62.19,62.19,0,0,0-4.73,9.4c-6.51,13.61-6.8,27.86-2.48,42.19,5.39,17.86,16.36,31.65,33.69,39.91,17.66,8.42,34.9,8.22,51.06-1.91l.38.42-.66.41,2.62,2.69.61-.45Z" transform="translate(-194.38 -192.84)"/><path class="cls-2" d="M299.15,459.19s-.16.22-.47.59h0c-.32.39-.79,1-1.39,1.63l-.43.48c-.69.75-1.51,1.59-2.41,2.43l-.23.21c-.67.62-1.39,1.23-2.14,1.8l-.61.45-2.62-2.69.66-.41,2-1.31c.17-.11.35-.23.52-.36.8-.53,1.65-1.12,2.44-1.71L295,460h0a20.41,20.41,0,0,0,1.84-1.58c.15-.16.29-.3.4-.44Z" transform="translate(-194.38 -192.84)"/><path class="cls-2" d="M383.43,440.62c-8.11,16.14-20.54,28-38.37,33.77-16.67,5.39-32.55,3.65-47.05-6.48-.54-.37-1-.83-1.63-1.33l.38-.39c.21.17.44.33.66.48l2.75-2.77-.81-.48.4-.45c15.1,9,31.21,9.59,47.74,2.36,19-8.32,30.82-23,36.26-42.33,4.07-14.48,3.39-29.21-3.5-42.71a59.51,59.51,0,0,0-5-8.13q2.94,3.72,5.54,7.78c3.62,5.67,6.81,11,8.27,17.47C392.44,412.44,390.34,426.88,383.43,440.62Z" transform="translate(-194.38 -192.84)"/><path class="cls-2" d="M300.17,463.9l-2.75,2.77c-.22-.15-.45-.31-.66-.48-.74-.53-1.44-1.1-2.1-1.68l-.21-.18c-.9-.8-1.72-1.6-2.4-2.31l-.39-.41c-.62-.65-1.11-1.21-1.42-1.58l-.42-.5,2-1.48a6.13,6.13,0,0,0,.44.46A18.11,18.11,0,0,0,294,460l.46.33c.77.55,1.59,1.09,2.37,1.59l.47.29c.79.5,1.51.93,2,1.23Z" transform="translate(-194.38 -192.84)"/></svg>