<svg id="Layer_1" data-name="Layer 1" xmlns="http://www.w3.org/2000/svg" viewBox="0 0 85.39 121.62"><defs><style>.cls-1{stroke:#000;stroke-miterlimit:10;stroke-width:0.49px;}</style></defs><title>FavIcon</title><path class="cls-1" d="M98.68,150.58a7.42,7.42,0,0,1-.7.8c-.52.52-.83.59-1.4,0-.23-.24-.47-.48-.68-.71a11.84,11.84,0,0,0,1-.69c.38-.28.61-.21,1,0S98.4,150.41,98.68,150.58Z" transform="translate(-55.11 -37.26)"/><path class="cls-1" d="M133.69,82.64a34,34,0,0,1-5.31,5.73c-.59.48-1.2.92-1.86,1.37,0,.05,0,.07-.07.05a39.3,39.3,0,0,1-8.55,4.34l0,0h0c-.78.3-1.53.56-2.29.78l-.19.07a.21.21,0,0,0-.12,0v0c-.11.12-.26.31-.23.35a.48.48,0,0,0,.21.19.29.29,0,0,0,.21.1l0,0a1.47,1.47,0,0,0,.59-.17c.45-.16.92-.33,1.37-.54l.66-.28c6.68-2.67,13.08-6.85,17-12.75,2.52-3.8,4.58-7.77,5-12.32,1.14-12.3-3.66-22-14.42-28.57A23.25,23.25,0,0,0,99,42.36a.76.76,0,0,1-1.11,0,20.45,20.45,0,0,0-7.77-3.66c-7.48-1.77-14.28-.14-20.44,4.15A28.52,28.52,0,0,0,58,59.64a25.74,25.74,0,0,0,2.39,19.64,35.83,35.83,0,0,0,9,10.51,32.31,32.31,0,0,0,9,5.43c.69.26,1.4.47,2.1.68a65.47,65.47,0,0,0,15.14,2.37h.14c2.33.14,4.67.3,7,.56l2.47.29,2.48.35h0l1.23.19a31.64,31.64,0,0,1,9.3,2.64,37.55,37.55,0,0,1,13.27,10.89s.07.09.09.14a30.84,30.84,0,0,1,2,2.81,22.65,22.65,0,0,1,3.5,7.36,26.6,26.6,0,0,1-2.36,18.2c-3.43,6.83-8.67,11.83-16.2,14.26-7,2.27-13.71,1.54-19.83-2.74-.23-.16-.42-.35-.68-.56.49-.5,1-1,1.44-1.54.19-.21.38-.45.54-.66a23.94,23.94,0,0,0,5.31-17,29,29,0,0,0-.94-5.95.23.23,0,0,1,0-.12,30.49,30.49,0,0,0-7.6-13A29.07,29.07,0,0,0,90,125.72a26.39,26.39,0,0,0-.92,3.78c-1.34,7.91.19,15,5.36,21.1.19.22.38.45.59.66.43.48.88,1,1.35,1.4-.07.12-.1.19-.17.23a2.48,2.48,0,0,1-.49.41c-6.21,4.58-13.08,5.4-20.35,3.06s-12.59-7.29-16.06-13.92a27.3,27.3,0,0,1-3-15.75c.54-4.3,2.71-7.93,4.76-11.57.43-.54.83-1.08,1.26-1.63a.46.46,0,0,1,.09-.14.47.47,0,0,1,.09-.12,48.77,48.77,0,0,1,5.2-5.85A43.69,43.69,0,0,1,78,101.92c.43-.16.85-.33,1.3-.47a.7.7,0,0,0,.33-.12v0c.1-.07.26-.26.22-.31a.42.42,0,0,0-.17-.18c-.07,0-.12-.1-.19-.1l0,0H79.4a1.63,1.63,0,0,0-.48.09,43.41,43.41,0,0,0-12.53,6.75,33.32,33.32,0,0,0-8.5,11.33,25.61,25.61,0,0,0-1.3,19,28.14,28.14,0,0,0,15.2,18c8.72,4.13,17.17,3.65,25-2.2a.74.74,0,0,1,1,0c7.34,5.15,15.23,5.79,23.37,2.25,8.59-3.76,13.9-10.39,16.36-19.13a25.43,25.43,0,0,0-1.75-19.05,35.53,35.53,0,0,0-10-11.82,29.57,29.57,0,0,0-13-6.38c-3.26-.61-6.52-1.16-9.8-1.51l-.24,0c-4.32-.48-8.64-.69-13-1.16l-1.46-.17A12.39,12.39,0,0,1,87,96.54l-.89-.14a31.28,31.28,0,0,1-7.65-2.15,38.53,38.53,0,0,1-8.45-5l-.17-.14a36,36,0,0,1-7.62-8.31,23.7,23.7,0,0,1-3.88-18.32C60.3,52.14,66,44.49,76.16,40.5a21.36,21.36,0,0,1,19.9,1.79c.52.33,1,.71,1.59,1.13-.5.5-1,1-1.42,1.52-.19.23-.4.47-.59.73a23.85,23.85,0,0,0-5.31,17,29.07,29.07,0,0,0,8.57,19.1,28.11,28.11,0,0,0,6.63-10.88.39.39,0,0,0,0-.14c.16-.47.3-.95.42-1.42,2.36-8.85,1-16.83-4.74-23.79-.19-.24-.38-.45-.59-.69-.43-.49-.9-1-1.37-1.46a7,7,0,0,1,.64-.52c6.56-4.82,13.78-5.57,21.31-2.79,8.67,3.24,14.1,9.52,16.91,17.92a24.92,24.92,0,0,1,0,16.57A29,29,0,0,1,133.69,82.64ZM96.58,151.41c-.23-.24-.47-.48-.68-.71s-.4-.43-.59-.66a22,22,0,0,1-5.43-12.33,28.19,28.19,0,0,1,.87-11,28.64,28.64,0,0,1,5.17-9.89c.29-.33.55-.69,1-1.18.89,1.18,1.74,2.17,2.48,3.23a30.12,30.12,0,0,1,4.36,9.59v0a26.07,26.07,0,0,1,.38,10.51c-.09.61-.21,1.23-.35,1.86a21.44,21.44,0,0,1-4.47,9,5.25,5.25,0,0,1-.59.66,7.42,7.42,0,0,1-.7.8C97.46,151.9,97.15,152,96.58,151.41Zm3.24-106a7.89,7.89,0,0,1,.63.66,22.11,22.11,0,0,1,5.32,11.59,4.21,4.21,0,0,1,0,.5s0,.07,0,.09a27.09,27.09,0,0,1-1,11.57s0,.05,0,.05a29.67,29.67,0,0,1-5,9.3l-1,1.25c-.83-1.06-1.61-1.94-2.27-2.91A29.53,29.53,0,0,1,92,67.2v0A24.87,24.87,0,0,1,91.67,57v0a.8.8,0,0,1,0-.21,21.73,21.73,0,0,1,4.75-10.6c.18-.24.4-.48.61-.71s.45-.5.68-.76c.55-.56.88-.52,1.42,0A5.88,5.88,0,0,1,99.82,45.41Z" transform="translate(-55.11 -37.26)"/><path class="cls-1" d="M104.09,139.06c-.09.61-.21,1.23-.35,1.86a21.44,21.44,0,0,1-4.47,9c-.18-.12-.35-.24-.54-.35s-.4-.34-.64-.55A22.51,22.51,0,0,0,104.09,139.06Z" transform="translate(-55.11 -37.26)"/><path class="cls-1" d="M96.51,149.05c-.07.09-.09.16-.14.21s-.31.26-.47.38-.4.28-.59.4a22,22,0,0,1-5.43-12.33A22.79,22.79,0,0,0,96.51,149.05Z" transform="translate(-55.11 -37.26)"/><path class="cls-1" d="M105.81,58.16A24.06,24.06,0,0,0,99.2,47c.22-.19.4-.35.59-.49a6,6,0,0,1,.66-.45,22.11,22.11,0,0,1,5.32,11.59A4.21,4.21,0,0,1,105.81,58.16Z" transform="translate(-55.11 -37.26)"/><path class="cls-1" d="M97.67,47a22.61,22.61,0,0,0-6,9.75,21.73,21.73,0,0,1,4.75-10.6C96.87,46.45,97.22,46.73,97.67,47Z" transform="translate(-55.11 -37.26)"/><path class="cls-1" d="M99.82,45.41a9.21,9.21,0,0,0-.92.66.71.71,0,0,1-1,0l-.78-.56c.21-.26.45-.5.68-.76.55-.56.88-.52,1.42,0A5.88,5.88,0,0,1,99.82,45.41Z" transform="translate(-55.11 -37.26)"/><path class="cls-1" d="M131.31,83.65a30.09,30.09,0,0,1-5,5.36,31.55,31.55,0,0,1-8.45,5.12l0,0h0c-.76.3-1.53.59-2.34.82a.22.22,0,0,1-.14,0,.35.35,0,0,0-.12.07c-.11.12-.26.31-.23.35a.48.48,0,0,0,.21.19.29.29,0,0,0,.21.1,1.27,1.27,0,0,0,.57-.15c.49-.16,1-.35,1.44-.54l.66-.28a32.88,32.88,0,0,0,8.36-5s0,0,.07-.05a29.16,29.16,0,0,0,6.09-6.68c2.36-3.54,4.27-7.25,4.67-11.5,1.07-11.49-3.42-20.51-13.48-26.67a21.66,21.66,0,0,0-23.13,0,4,4,0,0,0-.85.57,9.21,9.21,0,0,0-.92.66.71.71,0,0,1-1,0l-.78-.56c-.28-.19-.57-.36-.85-.54a18.44,18.44,0,0,0-5.62-2.32,22.86,22.86,0,0,0-19.07,3.87,26.51,26.51,0,0,0-10.86,15.7,23.86,23.86,0,0,0,2.24,18.35,32.15,32.15,0,0,0,6.89,8.52l.17.14c.45.4.89.78,1.37,1.16a30.9,30.9,0,0,0,8.38,5,58.4,58.4,0,0,0,16,2.86h.14c2.33.14,4.67.3,7,.56l2.47.29,2.48.35h0l1.23.19A28.58,28.58,0,0,1,117,102a35.18,35.18,0,0,1,14.5,12.63,22.12,22.12,0,0,1,3.09,7.15,24.64,24.64,0,0,1-2.22,17,25.11,25.11,0,0,1-15.09,13.29c-6,1.94-11.82,1.54-17.16-1.65-.28-.19-.57-.35-.83-.54s-.35-.24-.54-.35-.4-.34-.64-.55a22.51,22.51,0,0,0,6-10,23.94,23.94,0,0,0,.8-8,29.71,29.71,0,0,0-.42-3.61.23.23,0,0,1,0-.12,27.69,27.69,0,0,0-7.55-14.09A26.87,26.87,0,0,0,90,125.72c-.14.54-.26,1.11-.35,1.68a25.61,25.61,0,0,0,.19,10.31,22.79,22.79,0,0,0,6.63,11.34c-.07.09-.09.16-.14.21s-.31.26-.47.38-.4.28-.59.4-.54.37-.83.56c-5.43,3.38-11.35,3.9-17.59,1.89a26.61,26.61,0,0,1-17.8-27.71,24.81,24.81,0,0,1,4.3-10.89,28,28,0,0,1,6.37-7.13A35.25,35.25,0,0,1,78,101.92c.43-.16.85-.33,1.3-.47a.75.75,0,0,0,.33-.14c.1-.07.26-.26.22-.31a.42.42,0,0,0-.17-.18c-.07,0-.12-.1-.19-.1a1.16,1.16,0,0,0-.49.1,34.82,34.82,0,0,0-10.89,6.11,25.85,25.85,0,0,0-5.55,6.3.47.47,0,0,0-.09.12.46.46,0,0,0-.09.14,24.27,24.27,0,0,0-2,4,24,24,0,0,0-1,17.78,26.25,26.25,0,0,0,14.21,16.83c7.46,3.54,14.71,3.47,21.53-.81.26-.16.55-.35.83-.56a11.84,11.84,0,0,0,1-.69c.38-.28.61-.21,1,0s.54.37.82.54a6.7,6.7,0,0,0,.88.54c6.35,3.8,13.12,4.06,20.11,1,8-3.52,13-9.7,15.28-17.85a24.28,24.28,0,0,0-1.47-18,25.59,25.59,0,0,0-1.77-3s-.07-.1-.09-.14a37.08,37.08,0,0,0-7.63-7.75,27.89,27.89,0,0,0-12.11-6c-3-.54-6.07-1.06-9.14-1.39-4.08-.45-8.21-.66-12.32-1.09-.66-.07-1.32-.14-2-.26A12.39,12.39,0,0,1,87,96.54l-.89-.14a28.28,28.28,0,0,1-6.35-1.89,34.52,34.52,0,0,1-15.18-12.6,22.17,22.17,0,0,1-3.61-17.12C62.78,55.18,68.09,48,77.6,44.32a19.93,19.93,0,0,1,18,1.35l.54.33.29.19c.4.26.75.54,1.2.85a22.61,22.61,0,0,0-6,9.75.8.8,0,0,0,0,.21v0a23.81,23.81,0,0,0-.85,8,29.74,29.74,0,0,0,.38,3.3,27.88,27.88,0,0,0,7.63,14.52,26.54,26.54,0,0,0,6.63-11.62,2,2,0,0,0,.07-.35.39.39,0,0,0,0-.14,25.5,25.5,0,0,0,.26-12.49s0-.07,0-.09A24.06,24.06,0,0,0,99.2,47c.22-.19.4-.35.59-.49a6,6,0,0,1,.66-.45,7.6,7.6,0,0,1,.81-.54c5.73-3.62,12-4,18.44-1.59,8.07,3,13.14,8.88,15.79,16.72a23.17,23.17,0,0,1,0,15.46A26.64,26.64,0,0,1,131.31,83.65ZM96.68,147.87a21.33,21.33,0,0,1-6.45-16.18,26.67,26.67,0,0,1,.52-4.93,26.1,26.1,0,0,1,5.31-11.14c.24-.31.5-.64.85-1.11.85,1.11,1.66,2,2.32,3a26.84,26.84,0,0,1,4.48,11v0a25,25,0,0,1-.38,9.52A20.25,20.25,0,0,1,98,147.84C97.48,148.34,97.2,148.38,96.68,147.87Zm8.54-87.52a25.15,25.15,0,0,1-.35,9.47s0,.05,0,.05a26.3,26.3,0,0,1-5.13,10.57c-.26.33-.52.66-.89,1.16-.78-1-1.49-1.82-2.11-2.72A26.81,26.81,0,0,1,92,67.2v0a24.53,24.53,0,0,1,.66-10,20.1,20.1,0,0,1,5.17-8.9c.49-.52.8-.49,1.3,0A20.68,20.68,0,0,1,105.22,60.35Z" transform="translate(-55.11 -37.26)"/><path class="cls-1" d="M134.83,141.7c-3.43,6.83-8.67,11.83-16.2,14.26-7,2.27-13.71,1.54-19.83-2.74-.23-.16-.42-.35-.68-.56.49-.5,1-1,1.44-1.54,6.35,3.8,13.12,4.06,20.11,1,8-3.52,13-9.7,15.28-17.85a24.28,24.28,0,0,0-1.47-18,25.59,25.59,0,0,0-1.77-3,30.84,30.84,0,0,1,2,2.81,22.65,22.65,0,0,1,3.5,7.36A26.6,26.6,0,0,1,134.83,141.7Z" transform="translate(-55.11 -37.26)"/><path class="cls-1" d="M96.42,152.66c-.07.12-.1.19-.17.23a2.48,2.48,0,0,1-.49.41c-6.21,4.58-13.08,5.4-20.35,3.06s-12.59-7.29-16.06-13.92a27.3,27.3,0,0,1-3-15.75c.54-4.3,2.71-7.93,4.76-11.57.43-.54.83-1.08,1.26-1.63a24.27,24.27,0,0,0-2,4,24,24,0,0,0-1,17.78,26.25,26.25,0,0,0,14.21,16.83c7.46,3.54,14.71,3.47,21.53-.81C95.5,151.74,96,152.21,96.42,152.66Z" transform="translate(-55.11 -37.26)"/><path class="cls-1" d="M138.2,74.56a29,29,0,0,1-4.51,8.08,34,34,0,0,1-5.31,5.73c-.59.48-1.2.92-1.86,1.37a29.16,29.16,0,0,0,6.09-6.68c2.36-3.54,4.27-7.25,4.67-11.5,1.07-11.49-3.42-20.51-13.48-26.67a21.66,21.66,0,0,0-23.13,0c-.43-.49-.9-1-1.37-1.46a7,7,0,0,1,.64-.52c6.56-4.82,13.78-5.57,21.31-2.79,8.67,3.24,14.1,9.52,16.91,17.92A24.92,24.92,0,0,1,138.2,74.56Z" transform="translate(-55.11 -37.26)"/><path class="cls-1" d="M97.65,43.42c-.5.5-1,1-1.42,1.52a18.44,18.44,0,0,0-5.62-2.32,22.86,22.86,0,0,0-19.07,3.87,26.51,26.51,0,0,0-10.86,15.7,23.86,23.86,0,0,0,2.24,18.35,32.15,32.15,0,0,0,6.89,8.52,36,36,0,0,1-7.62-8.31,23.7,23.7,0,0,1-3.88-18.32C60.3,52.14,66,44.49,76.16,40.5a21.36,21.36,0,0,1,19.9,1.79C96.58,42.62,97.08,43,97.65,43.42Z" transform="translate(-55.11 -37.26)"/></svg>