<svg id="Layer_1" data-name="Layer 1" xmlns="http://www.w3.org/2000/svg" viewBox="0 0 18.2 12.75"><title>logo</title><path d="M19.21,11.75a3.32,3.32,0,0,0-.68-1.56.13.13,0,0,1,0-.18,3.41,3.41,0,0,0,.56-2.8,4,4,0,0,0-1-1.93A4.29,4.29,0,0,0,14.5,3.91,3.54,3.54,0,0,0,13,4.36,5.39,5.39,0,0,0,11.23,6a4.3,4.3,0,0,0-.66,1.16c0,.1-.06.2-.09.3v0a10.89,10.89,0,0,0-.37,2.41c0,.28,0,.55-.06.83s-.07.62-.12.92a4.05,4.05,0,0,1-.24,1A5.22,5.22,0,0,1,7.78,15a3.41,3.41,0,0,1-2.16.63,3.48,3.48,0,0,1-1.38-.32,3.85,3.85,0,0,1-2-1.95,3.32,3.32,0,0,1-.29-2,3.22,3.22,0,0,1,.34-.91s0-.06.08,0a3.57,3.57,0,0,0,1,.57,3.63,3.63,0,0,0,1.22.2A5.76,5.76,0,0,0,5.76,11a4.26,4.26,0,0,0,2.07-1.1s0-.05,0-.08A4,4,0,0,0,6.61,9a5.83,5.83,0,0,0-1.42-.37A3.89,3.89,0,0,0,4,8.68a3.7,3.7,0,0,0-1.68.77c-.05,0-.07.05-.11,0a2.93,2.93,0,0,1-.37-2,3.61,3.61,0,0,1,1-2,4,4,0,0,1,2.57-1.2,3.29,3.29,0,0,1,1.36.17A4.69,4.69,0,0,1,9.35,6.56a5.15,5.15,0,0,1,.29.68s0,.08.08.07a.08.08,0,0,0,0-.07.06.06,0,0,0,0,0,.14.14,0,0,1,0-.06c-.09-.23-.18-.46-.29-.69a4.84,4.84,0,0,0-1-1.5,5.3,5.3,0,0,0-1.13-.81,3.91,3.91,0,0,0-2.2-.5,4.54,4.54,0,0,0-1.61.44A4.15,4.15,0,0,0,1.26,6.59a3.33,3.33,0,0,0-.12,1.9,3.75,3.75,0,0,0,.63,1.34c.07.09.07.11,0,.2s-.16.25-.23.38a3.28,3.28,0,0,0-.4,2,4.36,4.36,0,0,0,.62,1.7A4.21,4.21,0,0,0,4,15.9a4.2,4.2,0,0,0,1.79.23,4,4,0,0,0,1.86-.71A5.59,5.59,0,0,0,9.14,14a4.74,4.74,0,0,0,.71-1.4,9.58,9.58,0,0,0,.22-1.19c.09-.53.12-1.06.17-1.6s.07-.87.13-1.3a4.54,4.54,0,0,1,.27-1.1,5.22,5.22,0,0,1,1.89-2.36,3.38,3.38,0,0,1,2.06-.64,3.87,3.87,0,0,1,.83.12A4,4,0,0,1,17.36,5.6a3.89,3.89,0,0,1,.78,1.19A3.33,3.33,0,0,1,18.45,8a2.92,2.92,0,0,1-.39,1.61c0,.06,0,.06-.1,0a3.69,3.69,0,0,0-2.28-.75,6.75,6.75,0,0,0-1.1.14,4.36,4.36,0,0,0-2.1,1.1s0,.06,0,.1a4,4,0,0,0,.93.65,5.24,5.24,0,0,0,1.59.49,3.61,3.61,0,0,0,1.35,0A3.65,3.65,0,0,0,18,10.57c.05,0,.06,0,.09,0a2.9,2.9,0,0,1,.39,2,3.8,3.8,0,0,1-1.06,2.11,4.06,4.06,0,0,1-1.57,1,3.52,3.52,0,0,1-2.31,0A4.51,4.51,0,0,1,12.29,15a4.69,4.69,0,0,1-1.44-1.78,5.83,5.83,0,0,1-.23-.58s0-.08-.08-.07a.08.08,0,0,0,0,.07.06.06,0,0,0,0,0s0,0,0,0A7.3,7.3,0,0,0,11.09,14a4.9,4.9,0,0,0,1.51,1.66,3.77,3.77,0,0,0,2.26.74,5.66,5.66,0,0,0,.63,0,3.83,3.83,0,0,0,1.4-.41A4.61,4.61,0,0,0,19,13.65,3.35,3.35,0,0,0,19.21,11.75ZM2.69,9.83a3,3,0,0,1,1.86-.92,3.28,3.28,0,0,1,1.64.15,4.93,4.93,0,0,1,1.17.69c.14.11.14.11,0,.22a4.46,4.46,0,0,1-1.74.9,2.48,2.48,0,0,1-.61.06,3.35,3.35,0,0,1-1.84-.51A3.48,3.48,0,0,1,2.69,10C2.6,10,2.6,9.91,2.69,9.83Zm14.92.38a3,3,0,0,1-1.39.82,3.5,3.5,0,0,1-1.79,0,4,4,0,0,1-1.4-.73l-.18-.14s0,0,0-.06a4.45,4.45,0,0,1,1.87-1,2.21,2.21,0,0,1,.57-.06,3.42,3.42,0,0,1,2,.64l.29.26C17.71,10.08,17.71,10.12,17.61,10.21Z" transform="translate(-1.05 -3.63)" style="fill:#8392a5"/></svg>